<svg xmlns="http://www.w3.org/2000/svg" width="760" height="380" viewBox="0 0 760 380">
<rect width="100%" height="100%" fill="white"/>
<text x="70" y="30" font-size="20" font-weight="700">Provincial 2025 partial official-location sample: distance distribution</text>
<line x1="70" y1="322" x2="736" y2="322" stroke="#333"/>
<line x1="70" y1="48" x2="70" y2="322" stroke="#333"/>
<rect x="70.0" y="48.0" width="32.3" height="274.0" fill="#4f7f6f" fill-opacity="0.82"/>
<rect x="103.3" y="311.2" width="32.3" height="10.8" fill="#4f7f6f" fill-opacity="0.82"/>
<rect x="136.6" y="320.0" width="32.3" height="2.0" fill="#4f7f6f" fill-opacity="0.82"/>
<rect x="169.9" y="321.8" width="32.3" height="0.2" fill="#4f7f6f" fill-opacity="0.82"/>
<rect x="203.2" y="321.3" width="32.3" height="0.7" fill="#4f7f6f" fill-opacity="0.82"/>
<rect x="236.5" y="321.8" width="32.3" height="0.2" fill="#4f7f6f" fill-opacity="0.82"/>
<rect x="269.8" y="322.0" width="32.3" height="0.0" fill="#4f7f6f" fill-opacity="0.82"/>
<rect x="303.1" y="322.0" width="32.3" height="0.0" fill="#4f7f6f" fill-opacity="0.82"/>
<rect x="336.4" y="322.0" width="32.3" height="0.0" fill="#4f7f6f" fill-opacity="0.82"/>
<rect x="369.7" y="322.0" width="32.3" height="0.0" fill="#4f7f6f" fill-opacity="0.82"/>
<rect x="403.0" y="322.0" width="32.3" height="0.0" fill="#4f7f6f" fill-opacity="0.82"/>
<rect x="436.3" y="322.0" width="32.3" height="0.0" fill="#4f7f6f" fill-opacity="0.82"/>
<rect x="469.6" y="322.0" width="32.3" height="0.0" fill="#4f7f6f" fill-opacity="0.82"/>
<rect x="502.9" y="322.0" width="32.3" height="0.0" fill="#4f7f6f" fill-opacity="0.82"/>
<rect x="536.2" y="322.0" width="32.3" height="0.0" fill="#4f7f6f" fill-opacity="0.82"/>
<rect x="569.5" y="322.0" width="32.3" height="0.0" fill="#4f7f6f" fill-opacity="0.82"/>
<rect x="602.8" y="321.8" width="32.3" height="0.2" fill="#4f7f6f" fill-opacity="0.82"/>
<rect x="636.1" y="322.0" width="32.3" height="0.0" fill="#4f7f6f" fill-opacity="0.82"/>
<rect x="669.4" y="322.0" width="32.3" height="0.0" fill="#4f7f6f" fill-opacity="0.82"/>
<rect x="702.7" y="321.5" width="32.3" height="0.5" fill="#4f7f6f" fill-opacity="0.82"/>
<text x="70.0" y="344" text-anchor="middle" font-size="12">0.00</text>
<text x="236.5" y="344" text-anchor="middle" font-size="12">3.67</text>
<text x="403.0" y="344" text-anchor="middle" font-size="12">7.34</text>
<text x="569.5" y="344" text-anchor="middle" font-size="12">11.00</text>
<text x="736.0" y="344" text-anchor="middle" font-size="12">14.67</text>
<text x="61" y="326.0" text-anchor="end" font-size="12">0</text>
<text x="61" y="257.5" text-anchor="end" font-size="12">280</text>
<text x="61" y="189.0" text-anchor="end" font-size="12">560</text>
<text x="61" y="120.5" text-anchor="end" font-size="12">840</text>
<text x="61" y="52.0" text-anchor="end" font-size="12">1120</text>
<text x="403.0" y="362" text-anchor="middle" font-size="14">Distance to polling station (km)</text>
<text transform="translate(18,210) rotate(-90)" text-anchor="middle" font-size="14">Polling divisions</text>
</svg>